<svg version="1.1" xmlns="http://www.w3.org/2000/svg" xmlns:xlink="http://www.w3.org/1999/xlink" width="702.24353" height="702.05783" viewBox="-172.24353,12,702.24353,702.05783"><defs><clipPath id="clip-1"><rect x="-172.24353" y="13.75783" width="700.3" height="700.3" id="clip-1" fill="none" stroke="none" stroke-width="1" stroke-linecap="butt" stroke-linejoin="miter"/></clipPath></defs><g id="document" fill="#ffffff" fill-rule="nonzero" stroke="#000000" stroke-width="0" stroke-linecap="butt" stroke-linejoin="miter" stroke-miterlimit="10" stroke-dasharray="" stroke-dashoffset="0" font-family="none" font-weight="none" font-size="none" text-anchor="none" style="mix-blend-mode: normal"><rect x="-170" y="8.57143" transform="scale(1,1.4)" width="700" height="500" id="Shape 1 1" vector-effect="non-scaling-stroke"/></g><g fill="none" fill-rule="nonzero" stroke="none" stroke-width="none" stroke-linecap="none" stroke-linejoin="none" stroke-miterlimit="10" stroke-dasharray="" stroke-dashoffset="0" font-family="none" font-weight="none" font-size="none" text-anchor="none" style="mix-blend-mode: normal"><g><g id="stage"><g id="layer1 1"><g clip-path="url(#clip-1)" id="Group 1"><g id="Group 1" fill-opacity="0" fill="#ffffff" stroke="#000000" stroke-width="0.3" stroke-linecap="butt" stroke-linejoin="miter"><rect x="-172.09353" y="9.93415" transform="scale(1,1.4)" width="700" height="500" id="Shape 1"/></g><g id="Group 1" stroke="#000000" stroke-linecap="round" stroke-linejoin="round"><g id="Group 1"><g id="Group 1"><path d="M-58.34334,336.37277v112.96078h-28.2549v-112.96078h-32.54901v-24.90196h94.33333v24.90196z" id="Path 1" fill="#eb7323" stroke-width="0"/><path d="M55.19066,394.66711h-42.11111v53.87025h-25.88889v-138.42581h25.88889v60.44445h42.11111v-60.22222h27v138.20358h-27z" id="Path 1" fill="#000000" stroke-width="0"/><path d="" id="Path 1" fill="#ffffff" stroke-width="1"/><path d="M240.81127,428.77255" id="Path 1" fill="#090909" stroke-width="0"/><path d="M140.15322,310.45933c25.35415,1.66381 45.36166,21.12359 45.36166,44.88468c0,17.47241 -10.81848,32.61901 -26.62609,40.07417l34.84831,54.03694l-30.44444,-0.44444l-30.94382,-48.83651l-1.72285,-2.71905v-18.88889l8.3414,-0.87287c11.22979,0 20.32526,-9.87712 20.32526,-21.96602c0,-12.0889 -9.10354,-21.88889 -20.33333,-21.88889c-0.07303,0 -0.14597,0.00041 -0.21882,0.00124l-14.34575,-0.14574l0.20685,6.53398l-0.0105,2.72423l-0.10846,28.14583l-0.10721,27.8216l-0.19388,50.3133l-25.77778,-0.88889l-0.10494,-65.06085l-0.08996,-55.77355l-0.02723,-16.88061l16.58586,-0.33792z" id="Path 1" fill="#000000" stroke-width="0"/><path d="M204.62609,450.6244v-140.44444h25.81481v140.44444z" id="Path 1" fill="#000000" stroke-width="0"/><path d="M232.92239,310.29107l28.51852,0.18519l36.11111,96.66667l34.62963,-96.66667l28.51852,0.37037l-51.66667,137.22222h-22.77778z" id="Path 1" fill="#000000" stroke-width="0"/><path d="M300.70016,335.66144" id="Path 1" fill="#000000" stroke-width="0"/><path d="M356.07053,379.32446c0,-40.55203 32.87392,-73.42593 73.42593,-73.42593c40.55203,0 73.42593,32.87392 73.42593,73.42593c0,40.55203 -32.87392,73.42593 -73.42593,73.42593c-40.55203,0 -73.42593,-32.87392 -73.42593,-73.42593z" id="Path 1" fill="#eb7024" stroke-width="0"/><path d="M386.62609,379.32446c0,-23.67666 19.19373,-42.87037 42.87037,-42.87037c23.67666,0 42.87037,19.19373 42.87037,42.87037c0,23.67666 -19.19373,42.87037 -42.87037,42.87037c-23.67666,0 -42.87037,-19.19373 -42.87037,-42.87037z" id="Path 1" fill="#fdfffc" stroke-width="0"/><path d="M408.47794,380.80959l18.88889,-32.03704l4.44444,25.92593z" id="Path 1" fill="#eb7024" stroke-width="0"/><path d="M449.21868,372.47626c0,0 -24.81481,41.66667 -24.81481,41.11111c0,-0.50321 0.60772,-25.16313 0.72225,-29.80614l-17.20373,-2.2309l24.62963,-6.66667z" id="Path 1" fill="#1c1d1e" stroke-width="0"/><path d="M194.57531,260.06824c7.42809,-12.61612 15.16934,-25.43436 43.18718,-47.19125c-16.79257,10.1229 -34.48804,21.76279 -46.61788,38.41408c-4.93827,-11.80367 1.24754,-28.30765 3.37376,-33.20734c1.14285,-2.63359 1.11285,-1.91462 -2.44783,4.68882c-10.18519,18.88889 -5.37038,36.2963 -5.37038,36.2963c-12.22222,20.92592 -16.29629,54.81481 -16.29629,54.81481c0,0 -21.11111,-18.33333 -15,-52.22222c6.11111,-33.88889 38.14815,-48.51852 46.85185,-52.96296c8.7037,-4.44444 31.2963,-10.18519 31.2963,-10.18519c0,0 16.66666,-5.55556 28.88888,-13.51851c-0.00758,0.01531 -9.06612,18.31799 -9.61505,30.00068c0,0 -1.31087,17.77709 -2.97754,25.74006c-1.66667,7.96296 -4.81481,17.77778 -10.74074,25.74074c-5.92593,7.96296 -10.37037,15.74074 -25.37037,26.48148c-13.96308,9.99825 -32.74018,17.42904 -35.2695,18.40861c0.00079,-0.00924 2.49322,-29.15175 11.93616,-44.33454c0,0 29.07408,-1.85185 43.70371,-15.92592c2.28962,-2.20267 3.70834,-3.43919 4.34064,-3.96725c3.36033,-2.80634 -15.49068,14.39675 -43.87291,12.9296z" id="Path 1" fill="#090909" stroke-width="0"/><path d="M167.99646,222.217" id="Path 1" fill="#090909" stroke-width="0"/><path d="M148.43929,265.58549c-2.71124,19.86814 1.40902,34.2241 1.40902,34.2241c-19.62963,-12.96296 -26.66666,-21.85185 -32.59259,-31.85185c-5.92593,-10 -7.40741,-16.2963 -10,-25.74074c-2.29821,-8.37204 -2.06878,-24.85177 -1.99107,-28.32987c0.19284,-12.8652 -7.08301,-30.18865 -7.08301,-30.18865c0,0 9.07407,9.07408 31.48148,15.92593c22.40741,6.85185 38.23512,22.32942 38.23512,22.32942c-7.61532,9.15651 -12.52852,18.51741 -15.60616,27.43402c0,0 -14.85119,-29.20789 -31.33267,-36.6153c0,0 25.02874,25.70276 29.10283,44.22128c-0.26101,1.07533 -0.49727,2.1408 -0.71048,3.19514c-0.13937,-0.00016 -0.28247,-0.00313 -0.42938,-0.00901c-6.53824,-0.26153 -17.97033,-5.69392 -24.12479,-8.86418c-2.56131,-1.31937 -4.20854,-2.24693 -4.20854,-2.24693c1.20994,1.10665 2.40388,2.50983 3.5767,3.47354c13.54636,11.13112 24.27355,13.0431 24.27355,13.0431z" id="Path 1" fill="#719744" stroke-width="0"/></g></g></g></g></g></g></g></g></svg>